<svg width="15" height="15" viewBox="0 0 15 15" fill="none" xmlns="http://www.w3.org/2000/svg">
<path d="M7.5 6.57499C7.24375 6.57499 7.03125 6.36249 7.03125 6.10624V4.02499C7.03125 3.76874 7.24375 3.55624 7.5 3.55624C7.75625 3.55624 7.96875 3.76874 7.96875 4.02499V6.10624C7.96875 6.36874 7.75625 6.57499 7.5 6.57499Z" fill="white"/>
<path d="M7.51254 12.7187C5.90004 12.7187 4.29379 12.4625 2.76254 11.95C2.19379 11.7625 1.76254 11.3562 1.57504 10.8437C1.38754 10.3312 1.45004 9.74374 1.75629 9.23124L2.55004 7.90624C2.72504 7.61249 2.88129 7.06249 2.88129 6.71874V5.40624C2.88129 2.84999 4.95629 0.774994 7.51254 0.774994C10.0688 0.774994 12.1438 2.84999 12.1438 5.40624V6.71874C12.1438 7.05624 12.3 7.61249 12.475 7.90624L13.2688 9.23124C13.5625 9.71874 13.6125 10.3 13.4188 10.8312C13.225 11.3625 12.8 11.7687 12.2625 11.95C10.7313 12.4687 9.12504 12.7187 7.51254 12.7187ZM7.51254 1.71874C5.47504 1.71874 3.81879 3.37499 3.81879 5.41249V6.72499C3.81879 7.23124 3.61879 7.96249 3.35629 8.39374L2.56254 9.72499C2.40004 9.99374 2.36254 10.2812 2.45629 10.5312C2.55004 10.7812 2.76254 10.9687 3.06254 11.0687C5.93754 12.025 9.10004 12.025 11.975 11.0687C12.2438 10.9812 12.45 10.7812 12.5438 10.5187C12.6438 10.2562 12.6125 9.96874 12.4688 9.72499L11.675 8.39999C11.4125 7.96874 11.2125 7.23749 11.2125 6.73124V5.41874C11.2063 3.37499 9.55004 1.71874 7.51254 1.71874Z" fill="white"/>
<path d="M7.49995 14.3125C6.8312 14.3125 6.17495 14.0375 5.69995 13.5625C5.22495 13.0875 4.94995 12.4313 4.94995 11.7625H5.88745C5.88745 12.1875 6.06245 12.6 6.36245 12.9C6.66245 13.2 7.07495 13.375 7.49995 13.375C8.38745 13.375 9.11245 12.65 9.11245 11.7625H10.05C10.05 13.1688 8.9062 14.3125 7.49995 14.3125Z" fill="white"/>
</svg>
